<?xml version="1.0" encoding="utf-8"?>
<!-- Generator: Adobe Illustrator 23.0.2, SVG Export Plug-In . SVG Version: 6.00 Build 0)  -->
<svg version="1.1" id="Layer_1" xmlns="http://www.w3.org/2000/svg" xmlns:xlink="http://www.w3.org/1999/xlink" x="0px" y="0px"
	 viewBox="0 0 360 360" style="enable-background:new 0 0 360 360;" xml:space="preserve">
<style type="text/css">
	.st0{fill:#325E63;}
	.st1{fill:#649194;}
	.st2{fill:#C9A92D;}
</style>
<g>
	<g>
		<path class="st0" d="M83.08,217.96c-0.35,0.03-0.7,0.11-1.05,0.23c-0.35,0.12-0.7,0.27-1.03,0.45c-0.52,0.3-0.89,0.62-1.11,0.97
			c-0.22,0.35-0.42,0.77-0.6,1.27c-0.62,1.72-1.58,4.47-2.87,8.26c-1.29,3.79-2.64,7.72-4.04,11.8h-3.43l-6.34-17.88l-5.72,17.88
			h-3.42c-1.89-5.49-3.33-9.73-4.34-12.69c-1.01-2.97-1.85-5.46-2.54-7.47c-0.22-0.61-0.46-1.05-0.73-1.33
			c-0.27-0.28-0.62-0.56-1.05-0.84c-0.3-0.2-0.63-0.35-0.98-0.45c-0.34-0.1-0.74-0.17-1.19-0.23v-1.32h12.84v1.29
			c-0.76,0.09-1.32,0.18-1.69,0.26c-0.37,0.09-0.67,0.17-0.88,0.26c-0.2,0.09-0.33,0.19-0.37,0.29c-0.05,0.1-0.07,0.19-0.07,0.27
			c0,0.16,0.02,0.31,0.06,0.46c0.04,0.15,0.08,0.32,0.13,0.51c0.27,0.88,0.82,2.55,1.65,5.01c0.82,2.46,1.84,5.52,3.05,9.17
			l5.48-17.52h3.6l6.34,18.08c0.94-2.9,1.69-5.28,2.25-7.12c0.56-1.84,1.03-3.42,1.42-4.73c0.23-0.8,0.41-1.48,0.54-2.02
			c0.13-0.54,0.2-1.01,0.2-1.41c0-0.24-0.11-0.44-0.33-0.61c-0.22-0.17-0.52-0.32-0.89-0.44c-0.32-0.1-0.72-0.18-1.23-0.25
			c-0.5-0.06-0.94-0.11-1.31-0.14v-1.36h9.68V217.96z"/>
	</g>
	<g>
		<path class="st0" d="M98.17,236.62c-0.4,0.64-0.87,1.25-1.43,1.82c-0.56,0.57-1.19,1.06-1.91,1.47c-0.76,0.43-1.52,0.76-2.3,0.98
			c-0.77,0.22-1.66,0.33-2.67,0.33c-1.67,0-3.12-0.24-4.33-0.71c-1.22-0.48-2.22-1.11-3.01-1.92c-0.79-0.8-1.38-1.75-1.77-2.84
			c-0.39-1.09-0.59-2.28-0.59-3.55c0-1.15,0.21-2.26,0.64-3.32c0.42-1.06,1.03-2,1.81-2.82c0.77-0.8,1.74-1.45,2.91-1.95
			c1.17-0.5,2.48-0.75,3.93-0.75c1.58,0,2.88,0.19,3.9,0.58c1.02,0.39,1.86,0.92,2.53,1.6c0.64,0.64,1.11,1.4,1.41,2.28
			c0.29,0.88,0.44,1.8,0.44,2.76v1.1H86.24c0,2.32,0.45,4.08,1.34,5.29c0.89,1.21,2.31,1.81,4.26,1.81c1.06,0,2.02-0.29,2.87-0.87
			c0.85-0.58,1.57-1.32,2.17-2.21L98.17,236.62z M91.69,230.17c0-0.68-0.03-1.37-0.1-2.09c-0.07-0.71-0.19-1.29-0.36-1.75
			c-0.19-0.53-0.46-0.93-0.79-1.2c-0.33-0.27-0.75-0.41-1.26-0.41c-0.87,0-1.57,0.44-2.09,1.32c-0.52,0.88-0.8,2.28-0.85,4.19
			L91.69,230.17z"/>
		<path class="st0" d="M107.65,241.25c-1.1,0-2.17-0.16-3.21-0.48c-1.05-0.32-1.86-0.66-2.43-1.03l-0.51,1.15h-1.32l-0.22-6.33h1.24
			c0.17,0.51,0.45,1.08,0.85,1.72c0.4,0.64,0.85,1.21,1.36,1.72c0.53,0.51,1.14,0.94,1.82,1.29c0.68,0.35,1.42,0.53,2.2,0.53
			c1.03,0,1.8-0.2,2.3-0.6c0.5-0.4,0.75-1.02,0.75-1.86c0-0.45-0.11-0.82-0.34-1.12c-0.23-0.29-0.54-0.55-0.93-0.76
			c-0.44-0.23-0.92-0.42-1.45-0.58c-0.53-0.16-1.17-0.35-1.94-0.58c-0.77-0.23-1.43-0.46-1.98-0.69s-1.12-0.6-1.7-1.09
			c-0.51-0.44-0.92-0.97-1.22-1.59c-0.3-0.62-0.46-1.36-0.46-2.22c0-1.6,0.67-2.88,2.01-3.87c1.34-0.98,3.09-1.48,5.27-1.48
			c1.03,0,1.97,0.1,2.84,0.31c0.86,0.21,1.59,0.44,2.18,0.69l0.36-1h1.29l0.27,5.78h-1.19c-0.4-1.18-1.07-2.19-2.03-3.04
			c-0.96-0.85-2-1.28-3.1-1.28c-0.87,0-1.55,0.18-2.05,0.54c-0.5,0.36-0.75,0.86-0.75,1.51c0,0.86,0.36,1.48,1.09,1.87
			c0.73,0.38,1.75,0.75,3.06,1.08c2.02,0.52,3.5,1.23,4.44,2.13c0.94,0.9,1.41,2.04,1.41,3.43c0,1.86-0.73,3.29-2.18,4.31
			C111.88,240.74,109.99,241.25,107.65,241.25z"/>
		<path class="st0" d="M130.22,239.89c-0.72,0.32-1.5,0.6-2.32,0.86c-0.82,0.25-1.83,0.38-3.02,0.38c-1.76,0-3.07-0.43-3.93-1.29
			c-0.85-0.86-1.28-2.08-1.28-3.68v-10.4h-3.05v-1.85h3.12v-5.14h5.49v5.14H130v1.85h-4.73v9.28c0,1.32,0.18,2.26,0.55,2.81
			c0.37,0.55,1.03,0.83,1.98,0.83c0.31,0,0.73-0.02,1.28-0.07c0.54-0.04,0.92-0.1,1.14-0.15V239.89z"/>
		<path class="st0" d="M173.48,240.67h-13.04v-1.32c0.39-0.03,0.86-0.09,1.42-0.17c0.56-0.08,0.94-0.16,1.14-0.25
			c0.42-0.17,0.72-0.4,0.9-0.7s0.27-0.67,0.27-1.12v-17.98l-8.28,21.15h-2.14c-0.1-0.37-0.35-1.11-0.76-2.22
			c-0.4-1.11-0.73-2-0.97-2.66l-6.09-16.54v14.64c0,1.4,0.09,2.47,0.28,3.2c0.19,0.73,0.49,1.26,0.91,1.6
			c0.28,0.24,0.79,0.46,1.52,0.68c0.73,0.22,1.24,0.34,1.53,0.37v1.32h-10.35v-1.32c0.28-0.03,0.74-0.11,1.38-0.23
			c0.64-0.12,1.16-0.33,1.57-0.62c0.45-0.32,0.76-0.85,0.91-1.6c0.16-0.75,0.24-1.82,0.24-3.21v-11.92c0-0.72-0.09-1.33-0.27-1.81
			c-0.18-0.48-0.45-0.86-0.82-1.14c-0.45-0.35-0.91-0.58-1.39-0.68c-0.47-0.1-0.96-0.17-1.44-0.2v-1.32h11.09l5.93,15.86l5-12.87
			c0.17-0.47,0.33-1.04,0.49-1.7s0.24-1.09,0.25-1.29h10.66v1.32c-0.36,0.02-0.74,0.07-1.14,0.14c-0.4,0.07-0.77,0.16-1.14,0.27
			c-0.44,0.15-0.73,0.38-0.87,0.7c-0.14,0.32-0.21,0.67-0.21,1.05v17.04c0,0.41,0.07,0.75,0.21,1.03c0.14,0.28,0.43,0.52,0.87,0.72
			c0.23,0.1,0.6,0.2,1.11,0.29c0.51,0.09,0.91,0.15,1.2,0.19V240.67z"/>
		<path class="st0" d="M186.49,240.67h-10.72v-1.24c0.29-0.02,0.58-0.05,0.86-0.08c0.28-0.03,0.53-0.09,0.73-0.17
			c0.36-0.13,0.62-0.33,0.76-0.58c0.15-0.25,0.22-0.59,0.22-1.01v-9.87c0-0.4-0.09-0.74-0.27-1.04c-0.18-0.3-0.41-0.54-0.68-0.72
			c-0.2-0.14-0.51-0.27-0.92-0.39c-0.41-0.12-0.79-0.2-1.13-0.24v-1.24l8.31-0.44l0.25,0.25v13.47c0,0.4,0.08,0.73,0.25,1.01
			c0.17,0.28,0.41,0.48,0.73,0.62c0.23,0.1,0.47,0.19,0.75,0.27c0.27,0.08,0.55,0.13,0.85,0.17V240.67z M184.01,217.54
			c0,0.86-0.33,1.59-0.99,2.2c-0.66,0.61-1.44,0.91-2.35,0.91c-0.92,0-1.7-0.3-2.37-0.91c-0.66-0.6-0.99-1.34-0.99-2.2
			c0-0.86,0.33-1.59,0.99-2.2c0.66-0.61,1.45-0.92,2.37-0.92s1.7,0.3,2.36,0.92C183.69,215.94,184.01,216.68,184.01,217.54z"/>
		<path class="st0" d="M207.05,225.75h-3.73c0.44,0.5,0.77,1.02,0.99,1.57c0.22,0.55,0.33,1.12,0.33,1.72c0,0.78-0.21,1.51-0.63,2.2
			c-0.42,0.68-0.97,1.24-1.65,1.67c-0.69,0.44-1.5,0.79-2.42,1.03c-0.93,0.25-1.93,0.37-3.02,0.37h-2.76
			c-0.13,0.1-0.29,0.27-0.45,0.49c-0.16,0.22-0.25,0.44-0.25,0.64c0,0.5,0.2,0.85,0.59,1.04c0.39,0.19,1.11,0.3,2.15,0.32
			c1.03,0.02,2.07,0.07,3.12,0.13c1.05,0.06,1.8,0.1,2.26,0.11c0.66,0.03,1.31,0.17,1.95,0.4c0.65,0.23,1.2,0.53,1.68,0.91
			c0.52,0.4,0.95,0.9,1.29,1.52c0.34,0.62,0.51,1.33,0.51,2.13c0,0.86-0.21,1.67-0.62,2.43c-0.41,0.76-1.04,1.41-1.89,1.97
			c-0.89,0.58-1.96,1.02-3.21,1.34c-1.25,0.32-2.8,0.47-4.64,0.47c-2.97,0-5.23-0.36-6.78-1.09s-2.32-1.81-2.32-3.26
			c0-0.89,0.42-1.63,1.25-2.2c0.84-0.58,2.14-0.89,3.9-0.95v-0.2c-1.04-0.35-1.85-0.82-2.43-1.4c-0.58-0.58-0.87-1.26-0.87-2.03
			c0-0.48,0.12-0.88,0.35-1.21c0.23-0.33,0.53-0.62,0.89-0.87c0.32-0.22,0.7-0.4,1.15-0.55c0.45-0.15,0.83-0.27,1.14-0.37v-0.19
			c-1.53-0.57-2.65-1.25-3.37-2.07c-0.72-0.81-1.08-1.81-1.08-2.98c0-1.66,0.77-2.99,2.3-3.99c1.53-0.99,3.47-1.49,5.83-1.49
			c0.77,0,1.51,0.06,2.23,0.19c0.72,0.13,1.26,0.24,1.64,0.35h6.58V225.75z M201.92,243.23c0-0.39-0.11-0.77-0.32-1.15
			c-0.21-0.38-0.69-0.69-1.44-0.92c-0.41-0.07-1.08-0.11-2.01-0.13c-0.93-0.02-2.21-0.03-3.83-0.03c-0.39,0.34-0.73,0.74-0.99,1.2
			c-0.26,0.46-0.4,1.02-0.4,1.68c0,0.28,0.08,0.59,0.24,0.93c0.16,0.34,0.41,0.66,0.75,0.95c0.39,0.33,0.83,0.59,1.32,0.77
			c0.48,0.19,1.22,0.28,2.2,0.28c1.45,0,2.57-0.28,3.33-0.85C201.54,245.4,201.92,244.49,201.92,243.23z M199.09,228.97
			c0-1.32-0.21-2.37-0.63-3.14c-0.42-0.77-1.07-1.15-1.94-1.15c-0.44,0-0.83,0.1-1.16,0.31c-0.33,0.21-0.59,0.51-0.8,0.91
			c-0.19,0.38-0.32,0.83-0.39,1.35c-0.07,0.51-0.1,1.04-0.1,1.59c0,1.23,0.22,2.24,0.65,3.04c0.43,0.79,1.04,1.19,1.84,1.19
			c0.82,0,1.44-0.36,1.88-1.07S199.09,230.27,199.09,228.97z"/>
		<path class="st0" d="M224.97,226.95c0,0.86-0.27,1.61-0.8,2.26c-0.53,0.65-1.23,0.97-2.1,0.97c-0.83,0-1.52-0.21-2.09-0.62
			c-0.57-0.42-0.86-1.03-0.86-1.84c0-0.39,0.03-0.7,0.09-0.92c0.06-0.22,0.11-0.42,0.15-0.62c-0.52,0.02-1.07,0.2-1.65,0.54
			c-0.58,0.34-1.08,0.78-1.53,1.34v9.31c0,0.39,0.06,0.72,0.19,0.98c0.12,0.26,0.33,0.46,0.63,0.61c0.25,0.12,0.65,0.23,1.21,0.31
			c0.56,0.09,0.96,0.13,1.21,0.14v1.24h-11.35v-1.24c0.28-0.02,0.57-0.05,0.86-0.09c0.29-0.04,0.53-0.09,0.74-0.16
			c0.36-0.12,0.61-0.32,0.75-0.58c0.14-0.26,0.2-0.6,0.2-1.02v-9.87c0-0.41-0.1-0.77-0.29-1.09c-0.19-0.32-0.42-0.58-0.7-0.77
			c-0.2-0.13-0.46-0.25-0.77-0.34c-0.31-0.09-0.65-0.15-1.03-0.19v-1.24l8.09-0.44l0.25,0.25v2.46h0.07
			c0.78-0.9,1.61-1.61,2.48-2.13c0.88-0.51,1.79-0.77,2.74-0.77c1.05,0,1.9,0.33,2.53,0.98
			C224.65,225.08,224.97,225.92,224.97,226.95z"/>
		<path class="st0" d="M245.53,240.31c-0.5,0.22-1.08,0.41-1.76,0.59c-0.68,0.18-1.39,0.27-2.15,0.27c-1.39,0-2.41-0.21-3.06-0.62
			s-1.1-1-1.34-1.77h-0.1c-0.39,0.38-0.76,0.71-1.11,0.98c-0.36,0.27-0.74,0.5-1.15,0.69c-0.53,0.25-1.04,0.44-1.54,0.56
			c-0.49,0.12-1.18,0.19-2.06,0.19c-1.31,0-2.43-0.39-3.36-1.16s-1.39-1.8-1.39-3.08c0-0.74,0.1-1.36,0.3-1.88
			c0.2-0.51,0.49-0.97,0.87-1.37c0.34-0.36,0.73-0.66,1.18-0.9c0.45-0.24,0.94-0.46,1.47-0.66c1.02-0.37,2.24-0.76,3.67-1.16
			c1.43-0.4,2.47-0.76,3.12-1.08v-1.63c0-0.28-0.02-0.66-0.07-1.12c-0.04-0.46-0.14-0.85-0.29-1.17c-0.16-0.36-0.41-0.67-0.75-0.91
			c-0.34-0.25-0.79-0.37-1.34-0.37c-0.5,0-0.91,0.07-1.25,0.21s-0.6,0.29-0.81,0.43c0.03,0.23,0.13,0.57,0.29,1.03
			c0.16,0.46,0.24,0.91,0.24,1.34c0,0.19-0.05,0.43-0.15,0.72s-0.25,0.52-0.44,0.69c-0.26,0.23-0.55,0.4-0.88,0.53
			c-0.32,0.12-0.82,0.19-1.49,0.19c-0.95,0-1.67-0.23-2.16-0.69c-0.49-0.46-0.73-1.05-0.73-1.79c0-0.63,0.25-1.2,0.76-1.71
			c0.5-0.5,1.12-0.92,1.84-1.25c0.71-0.34,1.53-0.6,2.46-0.79c0.93-0.19,1.79-0.28,2.58-0.28c1.1,0,2.1,0.06,3.02,0.19
			c0.92,0.13,1.74,0.4,2.48,0.81c0.7,0.4,1.26,0.97,1.67,1.72c0.41,0.75,0.62,1.73,0.62,2.94c0,1.28-0.03,2.79-0.08,4.55
			c-0.05,1.75-0.08,2.91-0.08,3.46c0,0.51,0.08,0.91,0.23,1.2s0.39,0.51,0.7,0.66c0.19,0.09,0.5,0.14,0.91,0.16
			c0.41,0.02,0.79,0.03,1.13,0.03V240.31z M237.11,231.48c-0.64,0.22-1.27,0.46-1.89,0.74c-0.62,0.28-1.14,0.57-1.53,0.88
			c-0.42,0.32-0.75,0.72-0.99,1.22c-0.24,0.49-0.36,1.07-0.36,1.74c0,0.88,0.2,1.52,0.6,1.92c0.4,0.4,0.9,0.59,1.49,0.59
			c0.62,0,1.14-0.13,1.54-0.38c0.4-0.25,0.76-0.57,1.06-0.94L237.11,231.48z"/>
		<path class="st0" d="M259.45,239.89c-0.72,0.32-1.5,0.6-2.32,0.86c-0.83,0.25-1.83,0.38-3.02,0.38c-1.76,0-3.07-0.43-3.93-1.29
			c-0.85-0.86-1.28-2.08-1.28-3.68v-10.4h-3.05v-1.85h3.12v-5.14h5.49v5.14h4.77v1.85h-4.73v9.28c0,1.32,0.19,2.26,0.55,2.81
			c0.37,0.55,1.03,0.83,1.98,0.83c0.31,0,0.73-0.02,1.28-0.07c0.54-0.04,0.92-0.1,1.14-0.15V239.89z"/>
		<path class="st0" d="M271.35,240.67h-10.72v-1.24c0.29-0.02,0.58-0.05,0.86-0.08c0.28-0.03,0.53-0.09,0.73-0.17
			c0.36-0.13,0.62-0.33,0.76-0.58c0.15-0.25,0.22-0.59,0.22-1.01v-9.87c0-0.4-0.09-0.74-0.27-1.04c-0.18-0.3-0.41-0.54-0.68-0.72
			c-0.2-0.14-0.51-0.27-0.92-0.39c-0.41-0.12-0.79-0.2-1.13-0.24v-1.24l8.31-0.44l0.25,0.25v13.47c0,0.4,0.08,0.73,0.25,1.01
			c0.17,0.28,0.41,0.48,0.73,0.62c0.23,0.1,0.48,0.19,0.75,0.27c0.27,0.08,0.55,0.13,0.85,0.17V240.67z M268.88,217.54
			c0,0.86-0.33,1.59-0.99,2.2c-0.66,0.61-1.44,0.91-2.35,0.91c-0.92,0-1.7-0.3-2.37-0.91c-0.66-0.6-0.99-1.34-0.99-2.2
			c0-0.86,0.33-1.59,0.99-2.2c0.66-0.61,1.45-0.92,2.37-0.92s1.7,0.3,2.36,0.92C268.55,215.94,268.88,216.68,268.88,217.54z"/>
		<path class="st0" d="M290.23,225.85c0.84,0.78,1.48,1.71,1.92,2.8c0.44,1.09,0.66,2.26,0.66,3.53c0,1.25-0.22,2.44-0.65,3.55
			c-0.44,1.11-1.07,2.07-1.91,2.86c-0.89,0.85-1.96,1.5-3.2,1.95c-1.24,0.45-2.66,0.68-4.25,0.68c-1.38,0-2.65-0.2-3.81-0.59
			c-1.16-0.4-2.19-0.99-3.08-1.78c-0.86-0.76-1.54-1.69-2.03-2.81c-0.5-1.11-0.75-2.36-0.75-3.74c0-1.36,0.22-2.56,0.65-3.62
			c0.44-1.06,1.09-2,1.96-2.82c0.84-0.79,1.87-1.4,3.1-1.84c1.23-0.43,2.6-0.65,4.11-0.65c1.58,0,2.98,0.22,4.18,0.65
			C288.34,224.44,289.37,225.06,290.23,225.85z M285.89,237.6c0.25-0.63,0.43-1.4,0.55-2.31s0.18-1.96,0.18-3.15
			c0-0.79-0.06-1.7-0.17-2.71c-0.11-1.02-0.28-1.82-0.51-2.41c-0.27-0.71-0.65-1.27-1.13-1.68c-0.48-0.41-1.09-0.61-1.82-0.61
			c-0.8,0-1.44,0.22-1.92,0.66s-0.85,1.01-1.11,1.71c-0.24,0.65-0.4,1.4-0.49,2.26c-0.09,0.86-0.13,1.77-0.13,2.7
			c0,1.23,0.04,2.25,0.12,3.06c0.08,0.81,0.27,1.62,0.58,2.43c0.26,0.7,0.63,1.25,1.12,1.66c0.49,0.41,1.1,0.61,1.85,0.61
			c0.68,0,1.26-0.19,1.75-0.57C285.22,238.89,285.6,238.34,285.89,237.6z"/>
		<path class="st0" d="M317.38,240.67h-10.19v-1.24c0.22-0.02,0.47-0.05,0.78-0.08c0.31-0.03,0.54-0.09,0.7-0.17
			c0.24-0.12,0.41-0.3,0.51-0.54c0.1-0.24,0.15-0.59,0.15-1.05v-7.94c0-1.15-0.21-2.02-0.64-2.6c-0.42-0.58-1.05-0.87-1.88-0.87
			c-0.45,0-0.88,0.07-1.27,0.2c-0.39,0.13-0.78,0.33-1.15,0.59c-0.33,0.23-0.59,0.46-0.79,0.7c-0.2,0.24-0.37,0.45-0.5,0.63v9.11
			c0,0.4,0.06,0.73,0.17,0.99c0.11,0.27,0.3,0.47,0.56,0.6c0.18,0.1,0.41,0.19,0.68,0.27c0.27,0.08,0.54,0.13,0.8,0.17v1.24h-10.31
			v-1.24c0.28-0.02,0.57-0.05,0.86-0.09c0.29-0.04,0.53-0.09,0.74-0.16c0.36-0.12,0.61-0.32,0.75-0.58c0.14-0.26,0.2-0.6,0.2-1.02
			v-9.87c0-0.35-0.09-0.7-0.27-1.03c-0.18-0.34-0.42-0.62-0.71-0.83c-0.2-0.13-0.46-0.25-0.77-0.34c-0.31-0.09-0.65-0.15-1.03-0.19
			v-1.24l8.09-0.44l0.25,0.25v2.46h0.07c0.32-0.28,0.7-0.62,1.15-1.02c0.45-0.39,0.87-0.72,1.25-0.97c0.42-0.27,0.97-0.5,1.64-0.7
			c0.68-0.19,1.4-0.29,2.17-0.29c1.84,0,3.22,0.52,4.15,1.57c0.92,1.05,1.38,2.43,1.38,4.16v8.31c0,0.42,0.06,0.75,0.19,1
			c0.13,0.25,0.36,0.45,0.7,0.59c0.18,0.08,0.4,0.16,0.67,0.24c0.26,0.08,0.57,0.13,0.91,0.17V240.67z"/>
	</g>
	<path class="st1" d="M245.3,84.78H132.56c-4.49,0-8.13,3.64-8.13,8.13v12.34h103.63c4.49,0,8.13,3.64,8.13,8.13v51.08h9.11
		c1.38,0,2.68-0.35,3.82-0.96c2.56-1.37,4.31-4.07,4.31-7.17V92.92C253.43,88.43,249.79,84.78,245.3,84.78"/>
	<path class="st0" d="M133.55,164.07c-6.44,5.71-11.59,12.82-14.98,20.86h18.85c1.38-5.25,3.41-10.23,6-14.87
		C139.94,168.35,136.64,166.35,133.55,164.07"/>
	<path class="st0" d="M147.13,164.16c1.24-1.75,2.56-3.43,3.95-5.04l-0.56-5.51c-4,1.59-7.78,3.62-11.28,6.02
		C141.74,161.33,144.37,162.85,147.13,164.16"/>
	<path class="st0" d="M135.73,209.14l0.02-0.02c0-0.02,0-0.04-0.01-0.06L135.73,209.14z"/>
	<path class="st0" d="M188.93,167.1c-2.15-2.91-4.53-5.59-7.13-8.01l-1.6,4.01c-0.04,0.1-0.14,0.14-0.24,0.12
		c-0.03-0.01-0.05-0.02-0.07-0.03l-0.48-0.37l-0.47-0.37c-0.05-0.04-0.08-0.09-0.08-0.16l-0.16-5.89c-2.34-1.89-4.83-3.59-7.43-5.09
		c-5.12,2.94-9.75,6.65-13.74,10.96l-1.23,5.31c4.92,1.37,10.11,2.11,15.47,2.11C177.65,169.7,183.4,168.82,188.93,167.1"/>
	<path class="st0" d="M228.06,105.25H124.43h-9.11c-4.49,0-8.13,3.64-8.13,8.13v63.42c0,3.11,1.74,5.81,4.31,7.17
		c6.73-17.38,20.76-31.14,38.31-37.5l-0.36-3.58l-0.32-3.18c-0.35-0.14-0.69-0.27-1.02-0.41c-0.25-0.1-0.5-0.2-0.75-0.3
		c-2.58-1.03-4.46-1.79-5.16-2.11c-0.97-0.43-2-1.18-2.97-2.09c-1.61-1.5-3.05-3.44-3.77-5.07c-0.04-0.08-0.07-0.16-0.1-0.24
		c-0.12-0.3-0.22-0.58-0.29-0.85c-0.15-0.61-0.15-1.14,0.04-1.53c0.03-0.06,0.07-0.12,0.11-0.18c1.27-1.93,6.96-2.73,11.76-0.62
		c1.35,0.59,3.79,1.96,6.91,3.8l2.76-1.67l23.65-14.34c0.13-0.08,0.29-0.1,0.44-0.04l2.29,0.86v0l0.05,0.02
		c0.08,0.03,0.15,0.08,0.2,0.14c0.02,0.02,0.03,0.04,0.04,0.06c0.01,0.01,0.02,0.02,0.02,0.03c0.04,0.07,0.06,0.15,0.06,0.22
		c0,0.04,0,0.08-0.01,0.12c-0.02,0.08-0.05,0.15-0.11,0.22l-17.93,21.38c2.87,1.78,5.86,3.66,8.84,5.53
		c3.63,0.13,7.19,0.57,10.64,1.28l4.91-3.5c0.05-0.04,0.11-0.05,0.17-0.03l0.58,0.16v0l0.58,0.16c0.13,0.04,0.19,0.19,0.12,0.3
		l-0.9,1.48l-1.45,2.4c19.79,5.43,35.82,20.05,43.18,38.97c2.48-1.39,4.16-4.04,4.16-7.09v-12.34v-51.08
		C236.19,108.89,232.55,105.25,228.06,105.25"/>
	<path class="st0" d="M171.78,176.62c-7.7,0-15.09-1.36-21.95-3.84c-4.84,8.44-7.61,18.21-7.61,28.61c0,1.06,0.03,2.12,0.09,3.17
		l28.21-19.64h27.31c-1.22-4.1-2.89-8.07-5-11.82C186.07,175.44,179.01,176.62,171.78,176.62"/>
	<path class="st2" d="M187.62,151.76c-0.3-0.55-0.89-1.16-1.83-1.81l3.06-5.04l1.45-2.4l0.9-1.48c0.07-0.12,0.01-0.27-0.12-0.3
		l-0.58-0.16v0l-0.58-0.16c-0.06-0.02-0.12,0-0.17,0.03l-4.91,3.5l-3.34,2.38l-0.69,0.49c-2.16-1.35-4.38-2.75-6.61-4.15
		c-2.98-1.87-5.97-3.75-8.84-5.53l17.93-21.38c0.06-0.07,0.09-0.14,0.11-0.22c0.01-0.04,0.01-0.08,0.01-0.12
		c0-0.08-0.02-0.15-0.06-0.22c-0.01-0.01-0.02-0.02-0.02-0.03c-0.01-0.02-0.03-0.04-0.04-0.06c-0.05-0.06-0.12-0.11-0.2-0.14
		l-0.05-0.02v0l-2.29-0.86c-0.15-0.05-0.31-0.04-0.44,0.04l-23.65,14.34l-2.76,1.67c-3.12-1.85-5.57-3.21-6.91-3.8
		c-4.8-2.1-10.48-1.31-11.76,0.62c-0.04,0.06-0.08,0.12-0.11,0.18c-0.19,0.39-0.19,0.91-0.04,1.53c0.07,0.27,0.16,0.55,0.29,0.85
		c0.03,0.08,0.07,0.16,0.1,0.24c0.72,1.63,2.17,3.56,3.77,5.07c0.97,0.91,2,1.66,2.97,2.09c0.71,0.31,2.58,1.08,5.16,2.11
		c0.24,0.1,0.49,0.2,0.75,0.3c0.33,0.13,0.67,0.27,1.02,0.41l0.32,3.18h0l0.36,3.58l0.72,7.13l0.56,5.51l1.14,11.3
		c0.02,0.15,0.1,0.29,0.23,0.38l2.12,1.34c0.29,0.19,0.68,0.03,0.76-0.31l0.98-4.23l1.23-5.31l4.08-17.63
		c6.2,2.44,12.56,4.94,16.95,6.67l0.02,0.84l0.11,4.24l0.16,5.89c0,0.06,0.03,0.12,0.08,0.16l0.47,0.37l0.48,0.37
		c0.02,0.02,0.05,0.03,0.07,0.03c0.1,0.02,0.2-0.02,0.24-0.12l1.6-4.01l2.23-5.6c0.11,0.04,0.21,0.08,0.31,0.12
		c0.04,0.01,0.08,0.02,0.11,0.04c0.11,0.03,0.21,0.07,0.32,0.09c0.03,0.01,0.06,0.02,0.08,0.02c0.13,0.03,0.25,0.06,0.37,0.08
		c0.03,0,0.05,0.01,0.08,0.01c0.1,0.02,0.19,0.03,0.29,0.04c0.03,0,0.06,0.01,0.09,0.01c0.23,0.02,0.45,0.01,0.65-0.01
		c0.01,0,0.02,0,0.03,0c4.23,3.93,7.99,8.45,11.13,13.53c3.38,5.45,5.89,11.36,7.51,17.51h19.97
		C218.25,168.94,204.51,156.59,187.62,151.76"/>
	<g>
		<g>
			<path class="st2" d="M92.73,275.22c-1.06,0-2.09-0.21-3.06-0.63c-0.98-0.42-1.84-1.02-2.6-1.82c-0.75-0.79-1.34-1.75-1.79-2.89
				c-0.44-1.14-0.67-2.42-0.67-3.85c0-1.43,0.22-2.72,0.65-3.89c0.44-1.16,1.04-2.17,1.81-3.01c0.76-0.83,1.66-1.47,2.7-1.93
				c1.04-0.45,2.15-0.68,3.33-0.68c0.88,0,1.68,0.11,2.39,0.33c0.71,0.22,1.39,0.52,2.04,0.92l0.52-0.86h1.01l0.11,6.37h-1.03
				c-0.13-0.62-0.34-1.3-0.6-2.02c-0.27-0.73-0.58-1.34-0.94-1.85c-0.4-0.57-0.88-1.02-1.43-1.34c-0.55-0.32-1.19-0.48-1.9-0.48
				c-0.81,0-1.57,0.18-2.27,0.54c-0.7,0.36-1.31,0.89-1.82,1.6c-0.49,0.68-0.87,1.55-1.14,2.6c-0.28,1.05-0.42,2.22-0.42,3.52
				c0,1.14,0.14,2.19,0.43,3.14c0.29,0.95,0.7,1.79,1.24,2.51c0.54,0.71,1.17,1.27,1.91,1.68c0.73,0.4,1.55,0.6,2.46,0.6
				c0.68,0,1.3-0.11,1.87-0.32s1.06-0.5,1.48-0.85c0.42-0.37,0.79-0.79,1.11-1.26c0.32-0.47,0.58-0.98,0.78-1.54l0.94,0.45
				c-0.72,1.77-1.68,3.04-2.87,3.8C95.79,274.83,94.38,275.22,92.73,275.22z"/>
			<path class="st2" d="M115.86,259.03c0.79,0.82,1.41,1.82,1.85,2.98c0.45,1.16,0.67,2.45,0.67,3.86c0,1.42-0.23,2.71-0.68,3.87
				c-0.45,1.16-1.08,2.14-1.89,2.96c-0.78,0.81-1.69,1.43-2.72,1.86c-1.03,0.44-2.13,0.66-3.3,0.66c-1.24,0-2.39-0.23-3.44-0.7
				s-1.96-1.11-2.71-1.94c-0.76-0.82-1.35-1.8-1.78-2.97c-0.43-1.16-0.65-2.41-0.65-3.73c0-1.45,0.23-2.75,0.68-3.88
				c0.45-1.14,1.08-2.12,1.88-2.95c0.79-0.82,1.71-1.45,2.75-1.89c1.05-0.44,2.14-0.66,3.28-0.66c1.18,0,2.3,0.22,3.35,0.67
				C114.19,257.6,115.09,258.23,115.86,259.03z M113.98,271.7c0.47-0.76,0.81-1.63,1.03-2.59c0.21-0.96,0.32-2.04,0.32-3.24
				c0-1.22-0.12-2.35-0.36-3.37c-0.24-1.02-0.59-1.9-1.05-2.62c-0.46-0.71-1.04-1.27-1.74-1.67c-0.7-0.4-1.49-0.6-2.39-0.6
				c-1.01,0-1.86,0.23-2.57,0.69c-0.71,0.46-1.28,1.08-1.73,1.85c-0.42,0.74-0.73,1.6-0.94,2.59c-0.21,0.99-0.31,2.03-0.31,3.12
				c0,1.21,0.11,2.3,0.33,3.27c0.22,0.97,0.56,1.84,1.03,2.59c0.45,0.74,1.02,1.32,1.71,1.73c0.69,0.42,1.51,0.62,2.47,0.62
				c0.9,0,1.71-0.21,2.43-0.63C112.94,273.04,113.53,272.46,113.98,271.7z"/>
			<path class="st2" d="M138.95,257.81c-0.24,0.01-0.6,0.07-1.08,0.2c-0.49,0.13-0.84,0.26-1.05,0.39c-0.3,0.21-0.51,0.61-0.61,1.21
				c-0.1,0.6-0.16,1.35-0.16,2.27v13.08h-1.1l-10.83-14.62v9.22c0,1.03,0.07,1.83,0.2,2.38c0.13,0.55,0.33,0.95,0.6,1.18
				c0.19,0.18,0.59,0.36,1.2,0.52c0.6,0.16,1,0.24,1.2,0.25v0.89h-7.33v-0.89c0.23-0.02,0.61-0.1,1.15-0.24
				c0.54-0.15,0.87-0.28,1.01-0.4c0.29-0.23,0.5-0.59,0.6-1.08c0.11-0.48,0.16-1.31,0.16-2.47v-8.8c0-0.39-0.07-0.77-0.2-1.16
				c-0.13-0.39-0.31-0.68-0.54-0.89c-0.3-0.28-0.71-0.51-1.23-0.71c-0.52-0.2-0.93-0.3-1.25-0.32v-0.89h5.11l10.04,13.62v-8.5
				c0-1.04-0.07-1.84-0.2-2.4c-0.13-0.56-0.33-0.93-0.58-1.11c-0.24-0.16-0.62-0.31-1.15-0.47c-0.53-0.15-0.94-0.24-1.22-0.25v-0.89
				h7.27V257.81z"/>
			<path class="st2" d="M151.52,266.59c0.38,0.42,0.66,0.88,0.84,1.38c0.18,0.5,0.27,1.08,0.27,1.74c0,1.58-0.58,2.88-1.75,3.9
				c-1.17,1.02-2.62,1.54-4.34,1.54c-0.8,0-1.6-0.12-2.39-0.37c-0.8-0.25-1.49-0.55-2.06-0.9l-0.54,0.92h-1.01l-0.18-6.12h1.02
				c0.21,0.76,0.46,1.44,0.74,2.05c0.28,0.61,0.65,1.18,1.11,1.71c0.44,0.5,0.95,0.89,1.53,1.18c0.58,0.29,1.26,0.44,2.03,0.44
				c0.58,0,1.09-0.07,1.52-0.23c0.43-0.15,0.78-0.37,1.05-0.64s0.47-0.6,0.6-0.98c0.13-0.37,0.2-0.8,0.2-1.29c0-0.71-0.2-1.38-0.6-2
				c-0.4-0.62-1-1.09-1.8-1.41c-0.55-0.22-1.17-0.46-1.88-0.72c-0.71-0.26-1.31-0.51-1.83-0.75c-1.01-0.45-1.79-1.05-2.35-1.78
				c-0.56-0.73-0.84-1.69-0.84-2.88c0-0.68,0.14-1.31,0.42-1.9s0.67-1.11,1.18-1.57c0.49-0.44,1.06-0.78,1.73-1.03
				c0.66-0.25,1.36-0.37,2.08-0.37c0.82,0,1.56,0.13,2.21,0.38c0.65,0.25,1.24,0.55,1.78,0.88l0.52-0.86h1.01l0.1,5.93h-1.02
				c-0.18-0.68-0.39-1.33-0.62-1.95c-0.23-0.62-0.53-1.18-0.9-1.69c-0.36-0.49-0.8-0.88-1.32-1.17s-1.16-0.43-1.91-0.43
				c-0.8,0-1.48,0.26-2.04,0.77c-0.56,0.51-0.84,1.14-0.84,1.88c0,0.77,0.18,1.41,0.54,1.92c0.36,0.51,0.89,0.93,1.57,1.25
				c0.61,0.29,1.21,0.55,1.81,0.76c0.59,0.22,1.17,0.44,1.72,0.69c0.5,0.22,0.99,0.47,1.45,0.74
				C150.77,265.9,151.18,266.22,151.52,266.59z"/>
			<path class="st2" d="M172.94,257.81c-0.23,0.01-0.58,0.06-1.03,0.15c-0.45,0.09-0.82,0.23-1.11,0.42
				c-0.29,0.19-0.48,0.59-0.59,1.2c-0.11,0.6-0.16,1.34-0.16,2.22v7.77c0,0.99-0.21,1.85-0.62,2.58c-0.41,0.73-0.95,1.33-1.62,1.8
				c-0.66,0.45-1.36,0.78-2.1,0.98c-0.73,0.2-1.44,0.3-2.11,0.3c-1.07,0-2.03-0.14-2.87-0.42c-0.84-0.28-1.54-0.66-2.12-1.14
				c-0.56-0.48-0.99-1.03-1.27-1.64c-0.29-0.62-0.43-1.26-0.43-1.93v-10.57c0-0.29-0.05-0.54-0.14-0.74s-0.29-0.38-0.59-0.55
				c-0.21-0.12-0.48-0.21-0.81-0.28c-0.33-0.07-0.6-0.12-0.81-0.13v-0.89h7.44v0.89c-0.24,0.01-0.53,0.05-0.89,0.11
				c-0.36,0.07-0.62,0.13-0.79,0.19c-0.29,0.1-0.48,0.27-0.57,0.5c-0.1,0.23-0.14,0.49-0.14,0.77v9.86c0,0.48,0.05,0.98,0.16,1.5
				c0.1,0.53,0.31,1.01,0.62,1.47c0.33,0.46,0.77,0.84,1.33,1.13c0.56,0.29,1.34,0.44,2.32,0.44c0.92,0,1.7-0.15,2.32-0.44
				c0.63-0.29,1.12-0.68,1.48-1.16c0.34-0.45,0.59-0.93,0.73-1.42c0.14-0.49,0.21-0.99,0.21-1.5v-7.32c0-0.93-0.07-1.69-0.2-2.28
				c-0.13-0.59-0.33-0.98-0.59-1.17c-0.29-0.21-0.69-0.37-1.2-0.49c-0.51-0.12-0.9-0.19-1.16-0.2v-0.89h7.3V257.81z"/>
			<path class="st2" d="M188.72,269.47l-0.38,5.31h-13.97v-0.89c0.2-0.02,0.49-0.05,0.88-0.09c0.38-0.04,0.65-0.1,0.8-0.16
				c0.25-0.11,0.43-0.27,0.55-0.48c0.11-0.21,0.17-0.48,0.17-0.81v-12.79c0-0.29-0.05-0.54-0.14-0.76c-0.1-0.22-0.29-0.39-0.57-0.53
				c-0.19-0.1-0.46-0.2-0.81-0.3c-0.35-0.1-0.64-0.15-0.86-0.17v-0.89h7.54v0.89c-0.24,0.01-0.54,0.05-0.91,0.13
				c-0.37,0.08-0.64,0.14-0.81,0.2c-0.29,0.1-0.48,0.27-0.59,0.52c-0.1,0.24-0.16,0.5-0.16,0.78v12c0,0.55,0.03,0.98,0.08,1.29
				c0.05,0.31,0.18,0.54,0.38,0.71c0.19,0.15,0.48,0.25,0.86,0.3c0.38,0.05,0.92,0.07,1.61,0.07c0.31,0,0.63-0.01,0.97-0.02
				s0.66-0.05,0.96-0.1c0.29-0.05,0.56-0.12,0.81-0.21c0.25-0.09,0.43-0.2,0.55-0.33c0.35-0.39,0.75-0.97,1.2-1.76
				c0.46-0.78,0.78-1.42,0.95-1.91H188.72z"/>
			<path class="st2" d="M204.47,261.77h-0.87c-0.07-0.3-0.21-0.66-0.41-1.08c-0.2-0.42-0.42-0.81-0.66-1.18
				c-0.25-0.39-0.53-0.72-0.83-1.01c-0.3-0.29-0.59-0.45-0.86-0.5c-0.26-0.03-0.59-0.06-0.99-0.08c-0.39-0.02-0.76-0.02-1.1-0.02
				h-0.73v14.29c0,0.28,0.06,0.53,0.18,0.76c0.12,0.23,0.32,0.41,0.62,0.53c0.15,0.06,0.47,0.14,0.95,0.24
				c0.48,0.1,0.86,0.16,1.13,0.16v0.89h-8.44v-0.89c0.24-0.02,0.59-0.05,1.08-0.1s0.82-0.11,1-0.19c0.28-0.11,0.48-0.27,0.61-0.47
				c0.13-0.21,0.19-0.48,0.19-0.82v-14.4h-0.73c-0.26,0-0.58,0.01-0.97,0.02c-0.39,0.01-0.76,0.04-1.11,0.08
				c-0.28,0.03-0.56,0.2-0.86,0.5s-0.57,0.64-0.82,1.01c-0.25,0.38-0.48,0.78-0.67,1.2c-0.19,0.42-0.33,0.77-0.4,1.05h-0.88v-4.85
				h15.58V261.77z"/>
			<path class="st2" d="M222.55,274.79h-7.43v-0.89c0.65-0.04,1.2-0.13,1.63-0.25c0.43-0.13,0.65-0.28,0.65-0.47
				c0-0.08-0.01-0.17-0.03-0.28c-0.02-0.11-0.04-0.21-0.07-0.29l-1.48-4h-6.27c-0.24,0.59-0.43,1.1-0.57,1.54s-0.28,0.84-0.4,1.21
				c-0.11,0.36-0.19,0.65-0.23,0.88c-0.04,0.23-0.06,0.41-0.06,0.55c0,0.34,0.27,0.6,0.79,0.78c0.53,0.18,1.13,0.29,1.79,0.33v0.89
				h-6.73v-0.89c0.22-0.02,0.49-0.07,0.82-0.14c0.33-0.08,0.6-0.19,0.81-0.32c0.34-0.23,0.6-0.46,0.78-0.71
				c0.18-0.25,0.36-0.59,0.54-1.03c0.9-2.24,1.89-4.76,2.97-7.55c1.08-2.8,2.05-5.28,2.9-7.47h1.01l5.96,15.41
				c0.13,0.33,0.27,0.59,0.43,0.79c0.16,0.2,0.38,0.4,0.67,0.59c0.19,0.12,0.45,0.22,0.76,0.3c0.31,0.08,0.57,0.12,0.78,0.13V274.79
				z M215.36,267.48l-2.71-6.93l-2.67,6.93H215.36z"/>
			<path class="st2" d="M241.53,257.81c-0.24,0.01-0.6,0.07-1.08,0.2c-0.49,0.13-0.84,0.26-1.05,0.39c-0.3,0.21-0.5,0.61-0.61,1.21
				c-0.11,0.6-0.16,1.35-0.16,2.27v13.08h-1.1l-10.83-14.62v9.22c0,1.03,0.07,1.83,0.2,2.38c0.13,0.55,0.33,0.95,0.6,1.18
				c0.19,0.18,0.59,0.36,1.2,0.52c0.6,0.16,1,0.24,1.2,0.25v0.89h-7.33v-0.89c0.23-0.02,0.61-0.1,1.15-0.24
				c0.54-0.15,0.87-0.28,1.01-0.4c0.29-0.23,0.5-0.59,0.6-1.08c0.11-0.48,0.16-1.31,0.16-2.47v-8.8c0-0.39-0.07-0.77-0.2-1.16
				c-0.13-0.39-0.32-0.68-0.54-0.89c-0.3-0.28-0.71-0.51-1.23-0.71c-0.52-0.2-0.94-0.3-1.25-0.32v-0.89h5.11l10.04,13.62v-8.5
				c0-1.04-0.07-1.84-0.2-2.4c-0.13-0.56-0.33-0.93-0.58-1.11c-0.24-0.16-0.62-0.31-1.15-0.47c-0.53-0.15-0.94-0.24-1.22-0.25v-0.89
				h7.27V257.81z"/>
			<path class="st2" d="M250.84,275.22c-1.06,0-2.09-0.21-3.06-0.63c-0.98-0.42-1.84-1.02-2.6-1.82c-0.75-0.79-1.34-1.75-1.79-2.89
				c-0.45-1.14-0.67-2.42-0.67-3.85c0-1.43,0.22-2.72,0.65-3.89c0.44-1.16,1.04-2.17,1.81-3.01c0.76-0.83,1.67-1.47,2.71-1.93
				c1.04-0.45,2.15-0.68,3.33-0.68c0.88,0,1.68,0.11,2.39,0.33c0.71,0.22,1.39,0.52,2.04,0.92l0.52-0.86h1.01l0.11,6.37h-1.03
				c-0.13-0.62-0.34-1.3-0.6-2.02c-0.27-0.73-0.58-1.34-0.94-1.85c-0.4-0.57-0.88-1.02-1.43-1.34c-0.55-0.32-1.19-0.48-1.9-0.48
				c-0.81,0-1.57,0.18-2.27,0.54c-0.7,0.36-1.31,0.89-1.82,1.6c-0.49,0.68-0.87,1.55-1.14,2.6c-0.28,1.05-0.42,2.22-0.42,3.52
				c0,1.14,0.14,2.19,0.43,3.14c0.29,0.95,0.7,1.79,1.24,2.51c0.54,0.71,1.17,1.27,1.91,1.68c0.73,0.4,1.55,0.6,2.46,0.6
				c0.68,0,1.3-0.11,1.87-0.32c0.57-0.21,1.07-0.5,1.48-0.85c0.42-0.37,0.79-0.79,1.11-1.26c0.32-0.47,0.58-0.98,0.78-1.54
				l0.94,0.45c-0.72,1.77-1.68,3.04-2.87,3.8C253.9,274.83,252.49,275.22,250.84,275.22z"/>
			<path class="st2" d="M274.85,257.81c-0.14,0.01-0.37,0.07-0.68,0.17s-0.53,0.21-0.67,0.31c-0.33,0.2-0.55,0.36-0.67,0.47
				c-0.12,0.11-0.34,0.39-0.68,0.86c-0.65,0.92-1.26,1.86-1.81,2.81c-0.55,0.95-1.25,2.15-2.08,3.61c-0.31,0.54-0.52,0.97-0.62,1.3
				c-0.1,0.33-0.15,0.8-0.15,1.42v3.41c0,0.3,0.06,0.56,0.18,0.79c0.12,0.22,0.33,0.4,0.62,0.53c0.18,0.07,0.49,0.15,0.94,0.24
				c0.45,0.1,0.82,0.15,1.1,0.16v0.89h-8.36v-0.89c0.23-0.02,0.59-0.05,1.06-0.09c0.47-0.05,0.8-0.11,0.98-0.18
				c0.3-0.13,0.51-0.3,0.62-0.52c0.11-0.22,0.17-0.49,0.17-0.81v-4.34c0-0.13-0.08-0.38-0.24-0.74c-0.16-0.36-0.36-0.75-0.59-1.19
				c-0.5-0.97-1.06-2.03-1.68-3.16s-1.15-2.1-1.6-2.91c-0.28-0.48-0.52-0.84-0.74-1.08s-0.46-0.46-0.74-0.64
				c-0.2-0.13-0.44-0.22-0.72-0.29c-0.28-0.07-0.54-0.11-0.76-0.13v-0.89h7.63v0.89c-0.86,0.02-1.46,0.07-1.81,0.18
				s-0.53,0.24-0.53,0.43c0,0.05,0.02,0.14,0.07,0.26s0.12,0.28,0.21,0.48c0.11,0.22,0.24,0.47,0.39,0.75
				c0.15,0.28,0.29,0.55,0.43,0.81c0.39,0.75,0.8,1.49,1.21,2.23c0.41,0.74,0.95,1.71,1.61,2.9c1.32-2.12,2.32-3.78,3.01-4.96
				c0.69-1.19,1.04-1.9,1.04-2.13c0-0.19-0.07-0.35-0.21-0.47c-0.14-0.12-0.33-0.21-0.57-0.28c-0.24-0.07-0.51-0.11-0.79-0.13
				c-0.29-0.02-0.55-0.04-0.79-0.07v-0.89h6.21V257.81z"/>
		</g>
	</g>
</g>
</svg>
